<?xml version="1.0" encoding="UTF-8"?>
<!DOCTYPE svg PUBLIC "-//W3C//DTD SVG 1.1//EN" "http://www.w3.org/Graphics/SVG/1.1/DTD/svg11.dtd">
<svg xmlns="http://www.w3.org/2000/svg" version="1.1" width="241px" height="89px" style="shape-rendering:geometricPrecision; text-rendering:geometricPrecision; image-rendering:optimizeQuality; fill-rule:evenodd; clip-rule:evenodd" xmlns:xlink="http://www.w3.org/1999/xlink">
	<g>
		<path style="opacity:0.047" fill="#eaf7ee" d="M 66.5,3.5 C 67.675,3.28099 68.675,3.61432 69.5,4.5C 68.3112,5.42869 66.9778,5.76202 65.5,5.5C 65.8333,4.83333 66.1667,4.16667 66.5,3.5 Z"/>
	</g>
	<g>
		<path style="opacity:1" fill="#38b320" d="M 26.5,2.5 C 26.5,4.83333 26.5,7.16667 26.5,9.5C 26.7678,11.099 26.4345,12.4324 25.5,13.5C 24.36,10.9752 23.6933,8.30849 23.5,5.5C 23.1205,2.43311 24.1205,1.43311 26.5,2.5 Z"/>
	</g>
	<g>
		<path style="opacity:1" fill="#71c274" d="M 66.5,3.5 C 66.1667,4.16667 65.8333,4.83333 65.5,5.5C 60.9373,6.44801 56.9373,8.44801 53.5,11.5C 53.7373,10.209 53.404,9.20895 52.5,8.5C 56.5313,5.26575 61.198,3.59909 66.5,3.5 Z"/>
	</g>
	<g>
		<path style="opacity:0.145" fill="#a9ddac" d="M 26.5,2.5 C 27.1667,4.5 27.8333,6.5 28.5,8.5C 28.1583,9.33825 27.4916,9.67158 26.5,9.5C 26.5,7.16667 26.5,4.83333 26.5,2.5 Z"/>
	</g>
	<g>
		<path style="opacity:0.376" fill="#fff6c5" d="M 12.5,17.5 C 12.8016,14.9407 12.4682,12.6074 11.5,10.5C 11.3118,8.89674 11.8118,7.56341 13,6.5C 13.8099,10.3575 13.6433,14.0242 12.5,17.5 Z"/>
	</g>
	<g>
		<path style="opacity:1" fill="#469033" d="M 32.5,7.5 C 30.7706,8.23621 29.7706,9.56954 29.5,11.5C 29.5,12.1667 29.5,12.8333 29.5,13.5C 28.6373,15.4214 27.9707,17.4214 27.5,19.5C 27.1667,20.8333 26.8333,22.1667 26.5,23.5C 25.6618,23.1583 25.3284,22.4916 25.5,21.5C 25.5,18.8333 25.5,16.1667 25.5,13.5C 26.4345,12.4324 26.7678,11.099 26.5,9.5C 27.4916,9.67158 28.1583,9.33825 28.5,8.5C 29.5676,7.56552 30.901,7.23219 32.5,7.5 Z"/>
	</g>
	<g>
		<path style="opacity:1" fill="#45bd38" d="M 52.5,8.5 C 53.404,9.20895 53.7373,10.209 53.5,11.5C 53.1667,11.5 52.8333,11.5 52.5,11.5C 47.996,10.9165 43.496,10.2498 39,9.5C 35.7077,9.65509 32.541,10.3218 29.5,11.5C 29.7706,9.56954 30.7706,8.23621 32.5,7.5C 39.1491,6.05256 45.8157,6.3859 52.5,8.5 Z"/>
	</g>
	<g>
		<path style="opacity:1" fill="#90d36b" d="M 52.5,11.5 C 50.5398,13.1563 48.5398,14.823 46.5,16.5C 46.5,15.1667 46.5,13.8333 46.5,12.5C 40.7876,12.313 35.1209,12.6463 29.5,13.5C 29.5,12.8333 29.5,12.1667 29.5,11.5C 32.541,10.3218 35.7077,9.65509 39,9.5C 43.496,10.2498 47.996,10.9165 52.5,11.5 Z"/>
	</g>
	<g>
		<path style="opacity:0.663" fill="#6abbf6" d="M 87.5,16.5 C 86.1818,19.2575 85.5152,22.4242 85.5,26C 85.5371,29.5829 85.8705,33.0829 86.5,36.5C 84.5388,29.9131 83.8721,22.9131 84.5,15.5C 85.791,15.2627 86.791,15.596 87.5,16.5 Z"/>
	</g>
	<g>
		<path style="opacity:1" fill="#66c765" d="M 46.5,16.5 C 45.205,17.4884 43.8717,18.4884 42.5,19.5C 37.5999,18.2001 32.5999,18.2001 27.5,19.5C 27.9707,17.4214 28.6373,15.4214 29.5,13.5C 35.1209,12.6463 40.7876,12.313 46.5,12.5C 46.5,13.8333 46.5,15.1667 46.5,16.5 Z"/>
	</g>
	<g>
		<path style="opacity:0.128" fill="#cee9fc" d="M 88.5,17.5 C 89.1667,19.5 89.8333,21.5 90.5,23.5C 90.44,24.0431 90.1067,24.3764 89.5,24.5C 88.5258,22.2573 88.1924,19.924 88.5,17.5 Z"/>
	</g>
	<g>
		<path style="opacity:0.667" fill="#71bdf5" d="M 106.5,16.5 C 105.5,16.5 104.5,16.5 103.5,16.5C 103.207,23.2554 103.54,29.9221 104.5,36.5C 102.539,29.9131 101.872,22.9131 102.5,15.5C 104.099,15.2322 105.432,15.5655 106.5,16.5 Z"/>
	</g>
	<g>
		<path style="opacity:0.749" fill="#60b5f4" d="M 117.5,16.5 C 116.674,20.9819 116.174,25.6486 116,30.5C 115.283,29.9558 114.783,29.2891 114.5,28.5C 115.166,24.3155 115.833,19.9822 116.5,15.5C 117.107,15.6236 117.44,15.9569 117.5,16.5 Z"/>
	</g>
	<g>
		<path style="opacity:1" fill="#4a95d2" d="M 71.5,24.5 C 70.8333,24.5 70.5,24.1667 70.5,23.5C 69.925,21.5887 68.925,19.922 67.5,18.5C 68.1667,18.5 68.5,18.1667 68.5,17.5C 69.8333,17.1667 69.8333,16.8333 68.5,16.5C 66.3023,16.5912 65.9689,15.9245 67.5,14.5C 70.2882,12.0237 73.6215,11.0237 77.5,11.5C 76.8471,16.4715 74.8471,20.8049 71.5,24.5 Z"/>
	</g>
	<g>
		<path style="opacity:0.988" fill="#0e91ef" d="M 87.5,16.5 C 88.1667,16.5 88.5,16.8333 88.5,17.5C 88.1924,19.924 88.5258,22.2573 89.5,24.5C 90.1067,24.3764 90.44,24.0431 90.5,23.5C 93.9588,24.5429 94.2922,26.2096 91.5,28.5C 91.1667,28.5 90.8333,28.5 90.5,28.5C 90.44,27.9569 90.1067,27.6236 89.5,27.5C 89.0935,30.9391 88.0935,33.9391 86.5,36.5C 85.8705,33.0829 85.5371,29.5829 85.5,26C 85.5152,22.4242 86.1818,19.2575 87.5,16.5 Z"/>
	</g>
	<g>
		<path style="opacity:0.078" fill="#ecf7fe" d="M 119.5,17.5 C 120.491,23.979 120.824,30.6457 120.5,37.5C 118.901,37.7678 117.568,37.4345 116.5,36.5C 117.5,36.5 118.5,36.5 119.5,36.5C 119.5,30.1667 119.5,23.8333 119.5,17.5 Z"/>
	</g>
	<g>
		<path style="opacity:0.384" fill="#aad5f9" d="M 136.5,16.5 C 138.616,18.0881 138.949,20.0881 137.5,22.5C 136.478,22.1445 135.811,21.4778 135.5,20.5C 136.376,20.6309 137.043,20.2975 137.5,19.5C 136.873,18.5832 136.539,17.5832 136.5,16.5 Z"/>
	</g>
	<g>
		<path style="opacity:1" fill="#d3e13a" d="M 23.5,5.5 C 23.6933,8.30849 24.36,10.9752 25.5,13.5C 25.5,16.1667 25.5,18.8333 25.5,21.5C 24.5386,23.2646 24.2053,25.2646 24.5,27.5C 23.5,28.1667 22.5,28.8333 21.5,29.5C 21.5,28.1667 21.5,26.8333 21.5,25.5C 21.2945,18.6039 21.9611,11.9373 23.5,5.5 Z"/>
	</g>
	<g>
		<path style="opacity:1" fill="#20246b" d="M 67.5,18.5 C 68.925,19.922 69.925,21.5887 70.5,23.5C 68.7839,23.6287 67.1172,23.962 65.5,24.5C 64.8333,24.1667 64.1667,23.8333 63.5,23.5C 63.1667,22.5 62.5,21.8333 61.5,21.5C 62.751,18.5114 64.751,17.5114 67.5,18.5 Z"/>
	</g>
	<g>
		<path style="opacity:1" fill="#86cc53" d="M 42.5,19.5 C 41.5,21.1667 40.1667,22.5 38.5,23.5C 37.4855,22.2353 35.9855,21.5687 34,21.5C 30.3149,20.9217 27.8149,22.255 26.5,25.5C 26.5,24.8333 26.5,24.1667 26.5,23.5C 26.8333,22.1667 27.1667,20.8333 27.5,19.5C 32.5999,18.2001 37.5999,18.2001 42.5,19.5 Z"/>
	</g>
	<g>
		<path style="opacity:0.988" fill="#58a5f2" d="M 100.5,35.5 C 99.791,36.404 98.791,36.7373 97.5,36.5C 95.0252,34.2297 93.0252,31.563 91.5,28.5C 94.2922,26.2096 93.9588,24.5429 90.5,23.5C 92.3714,20.9392 94.3714,18.4392 96.5,16C 97.9437,15.2195 99.277,15.3861 100.5,16.5C 99.0927,20.0672 97.0927,23.2338 94.5,26C 97.6467,28.4638 99.6467,31.6305 100.5,35.5 Z"/>
	</g>
	<g>
		<path style="opacity:1" fill="#ffcf44" d="M 10.5,17.5 C 11.0383,24.5488 9.70501,31.2154 6.5,37.5C 8.7451,44.3673 10.7451,51.3673 12.5,58.5C 11.5252,61.2639 12.3585,63.5972 15,65.5C 15.4643,64.9056 15.631,64.2389 15.5,63.5C 16.4511,64.9187 16.7845,66.5853 16.5,68.5C 16.7373,69.791 16.404,70.791 15.5,71.5C 5.56486,61.5255 1.73152,49.5255 4,35.5C 5.98468,29.2439 8.15135,23.2439 10.5,17.5 Z"/>
	</g>
	<g>
		<path style="opacity:1" fill="#a3d644" d="M 38.5,23.5 C 37.5,25.1667 36.1667,26.5 34.5,27.5C 34.38,26.4138 33.7133,25.7472 32.5,25.5C 30.4035,25.9766 28.4035,26.6433 26.5,27.5C 26.5,26.8333 26.5,26.1667 26.5,25.5C 27.8149,22.255 30.3149,20.9217 34,21.5C 35.9855,21.5687 37.4855,22.2353 38.5,23.5 Z"/>
	</g>
	<g>
		<path style="opacity:1" fill="#63c7eb" d="M 67.5,14.5 C 65.9689,15.9245 66.3023,16.5912 68.5,16.5C 68.5,16.8333 68.5,17.1667 68.5,17.5C 67.8333,17.5 67.5,17.8333 67.5,18.5C 64.751,17.5114 62.751,18.5114 61.5,21.5C 56.6559,24.0979 52.3225,27.4312 48.5,31.5C 48.7329,29.9382 49.3995,28.6049 50.5,27.5C 55.3076,22.0236 60.9742,17.6903 67.5,14.5 Z"/>
	</g>
	<g>
		<path style="opacity:0.29" fill="#aad5f9" d="M 127.5,22.5 C 129.626,23.0482 131.626,23.7148 133.5,24.5C 130.918,24.9746 128.918,24.3079 127.5,22.5 Z"/>
	</g>
	<g>
		<path style="opacity:1" fill="#333d9a" d="M 70.5,23.5 C 70.5,24.1667 70.8333,24.5 71.5,24.5C 73.0075,26.1815 74.0075,28.1815 74.5,30.5C 74.6741,32.861 75.0074,35.1944 75.5,37.5C 75.631,38.2389 75.4643,38.9056 75,39.5C 74.6457,36.0861 72.8123,34.0861 69.5,33.5C 68.4242,30.3516 67.0909,27.3516 65.5,24.5C 67.1172,23.962 68.7839,23.6287 70.5,23.5 Z"/>
	</g>
	<g>
		<path style="opacity:0.137" fill="#d8effd" d="M 108.5,25.5 C 107.517,29.2984 107.183,33.2984 107.5,37.5C 106.209,37.7373 105.209,37.404 104.5,36.5C 106.275,32.6136 107.108,28.2803 107,23.5C 107.717,24.0442 108.217,24.7109 108.5,25.5 Z"/>
	</g>
	<g>
		<path style="opacity:0.991" fill="#3899f1" d="M 106.5,16.5 C 110.156,19.8033 112.822,23.8033 114.5,28.5C 114.783,29.2891 115.283,29.9558 116,30.5C 116.174,25.6486 116.674,20.9819 117.5,16.5C 118.492,16.3284 119.158,16.6618 119.5,17.5C 119.5,23.8333 119.5,30.1667 119.5,36.5C 118.5,36.5 117.5,36.5 116.5,36.5C 115.504,36.5858 114.671,36.2524 114,35.5C 111.909,32.2595 110.076,28.9262 108.5,25.5C 108.217,24.7109 107.717,24.0442 107,23.5C 107.108,28.2803 106.275,32.6136 104.5,36.5C 103.54,29.9221 103.207,23.2554 103.5,16.5C 104.5,16.5 105.5,16.5 106.5,16.5 Z"/>
	</g>
	<g>
		<path style="opacity:1" fill="#59a5f2" d="M 136.5,16.5 C 136.539,17.5832 136.873,18.5832 137.5,19.5C 137.043,20.2975 136.376,20.6309 135.5,20.5C 133.218,19.6103 130.885,19.4436 128.5,20C 127.748,20.6708 127.414,21.5041 127.5,22.5C 128.918,24.3079 130.918,24.9746 133.5,24.5C 138.037,25.2261 139.87,27.8927 139,32.5C 138.065,35.1019 136.232,36.6019 133.5,37C 130.366,37.7901 127.366,37.4568 124.5,36C 122.485,34.4447 122.152,32.6114 123.5,30.5C 127.129,33.8992 130.795,34.0658 134.5,31C 133.627,29.955 132.627,29.1217 131.5,28.5C 129.485,27.0762 127.152,26.4095 124.5,26.5C 120.543,23.4629 120.543,20.2963 124.5,17C 128.46,15.2434 132.46,15.0768 136.5,16.5 Z"/>
	</g>
	<g>
		<path style="opacity:0.129" fill="#dff1fd" d="M 90.5,28.5 C 89.5233,31.2869 89.19,34.2869 89.5,37.5C 88.209,37.7373 87.209,37.404 86.5,36.5C 88.0935,33.9391 89.0935,30.9391 89.5,27.5C 90.1067,27.6236 90.44,27.9569 90.5,28.5 Z"/>
	</g>
	<g>
		<path style="opacity:0.376" fill="#aad7fa" d="M 124.5,26.5 C 127.152,26.4095 129.485,27.0762 131.5,28.5C 128.848,28.5905 126.515,27.9238 124.5,26.5 Z"/>
	</g>
	<g>
		<path style="opacity:1" fill="#c8e138" d="M 34.5,27.5 C 32.1667,30.1667 29.8333,32.8333 27.5,35.5C 26.5269,33.0521 26.1936,30.3854 26.5,27.5C 28.4035,26.6433 30.4035,25.9766 32.5,25.5C 33.7133,25.7472 34.38,26.4138 34.5,27.5 Z"/>
	</g>
	<g>
		<path style="opacity:1" fill="#85a527" d="M 25.5,21.5 C 25.3284,22.4916 25.6618,23.1583 26.5,23.5C 26.5,24.1667 26.5,24.8333 26.5,25.5C 26.5,26.1667 26.5,26.8333 26.5,27.5C 26.1936,30.3854 26.5269,33.0521 27.5,35.5C 26.5,37.1667 25.1667,38.5 23.5,39.5C 23.5045,35.4659 23.8379,31.4659 24.5,27.5C 24.2053,25.2646 24.5386,23.2646 25.5,21.5 Z"/>
	</g>
	<g>
		<path style="opacity:1" fill="#7fc615" d="M 24.5,27.5 C 23.8379,31.4659 23.5045,35.4659 23.5,39.5C 23.1667,40.1667 22.8333,40.8333 22.5,41.5C 21.5166,37.7016 21.1832,33.7016 21.5,29.5C 22.5,28.8333 23.5,28.1667 24.5,27.5 Z"/>
	</g>
	<g>
		<path style="opacity:1" fill="#398da7" d="M 61.5,21.5 C 62.5,21.8333 63.1667,22.5 63.5,23.5C 63.5,24.1667 63.5,24.8333 63.5,25.5C 62.1667,26.5 60.8333,27.5 59.5,28.5C 58.2905,28.9321 57.2905,29.5987 56.5,30.5C 54.2228,31.4486 52.2228,32.7819 50.5,34.5C 50.1667,34.5 49.8333,34.5 49.5,34.5C 48.596,33.791 48.2627,32.791 48.5,31.5C 52.3225,27.4312 56.6559,24.0979 61.5,21.5 Z"/>
	</g>
	<g>
		<path style="opacity:1" fill="#03c2ed" d="M 59.5,28.5 C 61.1215,36.9082 59.4548,44.7416 54.5,52C 52.9343,52.765 51.6009,52.5983 50.5,51.5C 55.7983,45.2879 57.7983,38.2879 56.5,30.5C 57.2905,29.5987 58.2905,28.9321 59.5,28.5 Z"/>
	</g>
	<g>
		<path style="opacity:1" fill="#39cdf1" d="M 56.5,30.5 C 57.7983,38.2879 55.7983,45.2879 50.5,51.5C 48.4,49.3835 46.0667,47.7169 43.5,46.5C 47.1439,46.2923 49.3105,44.2923 50,40.5C 50.4955,38.5273 50.6621,36.5273 50.5,34.5C 52.2228,32.7819 54.2228,31.4486 56.5,30.5 Z"/>
	</g>
	<g>
		<path style="opacity:1" fill="#1dabda" d="M 63.5,25.5 C 64.2216,25.9175 64.7216,26.5842 65,27.5C 65.499,31.8206 65.6657,36.1539 65.5,40.5C 64.1595,44.3166 62.3262,47.9833 60,51.5C 58.5679,53.4388 56.7346,54.7721 54.5,55.5C 53.5084,55.3284 52.8417,55.6618 52.5,56.5C 50.9468,54.615 48.9468,53.615 46.5,53.5C 44.1097,52.1092 42.4431,50.1092 41.5,47.5C 41.8417,46.6618 42.5084,46.3284 43.5,46.5C 46.0667,47.7169 48.4,49.3835 50.5,51.5C 51.6009,52.5983 52.9343,52.765 54.5,52C 59.4548,44.7416 61.1215,36.9082 59.5,28.5C 60.8333,27.5 62.1667,26.5 63.5,25.5 Z"/>
	</g>
	<g>
		<path style="opacity:0.518" fill="#a2a5d1" d="M 74.5,30.5 C 75.9238,32.5145 76.5905,34.8478 76.5,37.5C 76.1667,37.5 75.8333,37.5 75.5,37.5C 75.0074,35.1944 74.6741,32.861 74.5,30.5 Z"/>
	</g>
	<g>
		<path style="opacity:0.024" fill="#e4f3fd" d="M 100.5,35.5 C 101.751,36.472 101.418,37.1386 99.5,37.5C 98.5836,37.4573 97.9169,37.1239 97.5,36.5C 98.791,36.7373 99.791,36.404 100.5,35.5 Z"/>
	</g>
	<g>
		<path style="opacity:1" fill="#127cc3" d="M 63.5,23.5 C 64.1667,23.8333 64.8333,24.1667 65.5,24.5C 67.0909,27.3516 68.4242,30.3516 69.5,33.5C 70.0138,35.8679 71.1805,37.8679 73,39.5C 73.49,40.7932 73.6567,42.1266 73.5,43.5C 72.603,42.4019 71.7697,42.4019 71,43.5C 70.51,44.7932 70.3433,46.1266 70.5,47.5C 70.5654,47.9382 70.3988,48.2716 70,48.5C 67.7138,46.2595 66.2138,43.5928 65.5,40.5C 65.6657,36.1539 65.499,31.8206 65,27.5C 64.7216,26.5842 64.2216,25.9175 63.5,25.5C 63.5,24.8333 63.5,24.1667 63.5,23.5 Z"/>
	</g>
	<g>
		<path style="opacity:0.149" fill="#e7f6de" d="M 21.5,25.5 C 21.5,26.8333 21.5,28.1667 21.5,29.5C 21.1832,33.7016 21.5166,37.7016 22.5,41.5C 22.44,42.0431 22.1067,42.3764 21.5,42.5C 20.1843,36.6796 20.1843,31.0129 21.5,25.5 Z"/>
	</g>
	<g>
		<path style="opacity:0.875" fill="#abe7f8" d="M 50.5,27.5 C 49.3995,28.6049 48.7329,29.9382 48.5,31.5C 45.8061,33.5272 43.4728,35.8605 41.5,38.5C 39.5,39.5 37.5,40.5 35.5,41.5C 39.8918,36.1057 44.8918,31.439 50.5,27.5 Z"/>
	</g>
	<g>
		<path style="opacity:1" fill="#9be2f7" d="M 49.5,34.5 C 49.8333,34.5 50.1667,34.5 50.5,34.5C 50.6621,36.5273 50.4955,38.5273 50,40.5C 49.3105,44.2923 47.1439,46.2923 43.5,46.5C 42.5084,46.3284 41.8417,46.6618 41.5,47.5C 39.364,49.8123 37.364,52.3123 35.5,55C 36.2524,55.6708 36.5858,56.5041 36.5,57.5C 34.8795,55.7359 33.5462,53.7359 32.5,51.5C 33.5,50.1667 34.5,48.8333 35.5,47.5C 40.1927,43.1386 44.8594,38.8052 49.5,34.5 Z"/>
	</g>
	<g>
		<path style="opacity:1" fill="#8eacb5" d="M 48.5,31.5 C 48.2627,32.791 48.596,33.791 49.5,34.5C 44.8594,38.8052 40.1927,43.1386 35.5,47.5C 34.8333,47.5 34.5,47.1667 34.5,46.5C 36.8333,43.8333 39.1667,41.1667 41.5,38.5C 43.4728,35.8605 45.8061,33.5272 48.5,31.5 Z"/>
	</g>
	<g>
		<path style="opacity:0.177" fill="#cfeafc" d="M 203.5,42.5 C 198.167,41.1667 192.833,41.1667 187.5,42.5C 187.167,42.5 186.833,42.5 186.5,42.5C 189.087,41.1836 192.087,40.517 195.5,40.5C 198.5,40.8333 201.5,41.1667 204.5,41.5C 204.376,42.1067 204.043,42.44 203.5,42.5 Z"/>
	</g>
	<g>
		<path style="opacity:0.004" fill="#f3fafe" d="M 227.5,41.5 C 226.833,41.5 226.167,41.5 225.5,41.5C 224.51,47.31 224.177,53.31 224.5,59.5C 223.51,53.3554 223.177,47.0221 223.5,40.5C 225.099,40.2322 226.432,40.5655 227.5,41.5 Z"/>
	</g>
	<g>
		<path style="opacity:0.604" fill="#7cc4f7" d="M 107.5,41.5 C 106.5,41.5 105.5,41.5 104.5,41.5C 104.207,48.2554 104.54,54.9221 105.5,61.5C 103.539,54.9131 102.872,47.9131 103.5,40.5C 105.099,40.2322 106.432,40.5655 107.5,41.5 Z"/>
	</g>
	<g>
		<path style="opacity:0.999" fill="#0a90ef" d="M 107.5,41.5 C 107.833,41.5 108.167,41.5 108.5,41.5C 108.331,43.912 108.997,46.0786 110.5,48C 110.164,49.0299 109.497,49.5299 108.5,49.5C 108.131,53.7675 107.131,57.7675 105.5,61.5C 104.54,54.9221 104.207,48.2554 104.5,41.5C 105.5,41.5 106.5,41.5 107.5,41.5 Z"/>
	</g>
	<g>
		<path style="opacity:0.322" fill="#b8e0fb" d="M 137.5,41.5 C 134.167,41.5 130.833,41.5 127.5,41.5C 127.5,47.8333 127.5,54.1667 127.5,60.5C 126.509,54.021 126.176,47.3543 126.5,40.5C 130.371,40.185 134.038,40.5184 137.5,41.5 Z"/>
	</g>
	<g>
		<path style="opacity:0.996" fill="#3497f0" d="M 137.5,41.5 C 139.017,41.5106 140.184,42.1772 141,43.5C 140.542,48.8125 140.542,54.1458 141,59.5C 138.583,60.9985 135.917,61.6651 133,61.5C 130.967,61.4944 129.134,61.1611 127.5,60.5C 127.5,54.1667 127.5,47.8333 127.5,41.5C 130.833,41.5 134.167,41.5 137.5,41.5 Z M 135.5,44.5 C 136.833,46.1667 136.833,47.8333 135.5,49.5C 134.167,49.5 132.833,49.5 131.5,49.5C 131.5,47.8333 131.5,46.1667 131.5,44.5C 132.833,44.5 134.167,44.5 135.5,44.5 Z M 136.5,53.5 C 136.5,54.8333 136.5,56.1667 136.5,57.5C 134.833,57.5 133.167,57.5 131.5,57.5C 131.5,56.1667 131.5,54.8333 131.5,53.5C 133.167,53.5 134.833,53.5 136.5,53.5 Z"/>
	</g>
	<g>
		<path style="opacity:0.039" fill="#ecf7fe" d="M 147.5,41.5 C 146.5,41.5 145.5,41.5 144.5,41.5C 144.5,47.8333 144.5,54.1667 144.5,60.5C 143.509,54.021 143.176,47.3543 143.5,40.5C 145.099,40.2322 146.432,40.5655 147.5,41.5 Z"/>
	</g>
	<g>
		<path style="opacity:1" fill="#2a98f0" d="M 147.5,41.5 C 148.819,48.344 148.819,55.344 147.5,62.5C 146.261,62.0576 145.261,61.3909 144.5,60.5C 144.5,54.1667 144.5,47.8333 144.5,41.5C 145.5,41.5 146.5,41.5 147.5,41.5 Z"/>
	</g>
	<g>
		<path style="opacity:0.29" fill="#bde3fb" d="M 165.5,43.5 C 161.627,41.5698 157.294,40.9031 152.5,41.5C 152.5,47.8333 152.5,54.1667 152.5,60.5C 151.509,54.021 151.176,47.3543 151.5,40.5C 156.5,40.5 161.5,40.5 166.5,40.5C 166.737,41.791 166.404,42.791 165.5,43.5 Z"/>
	</g>
	<g>
		<path style="opacity:1" fill="#2795f0" d="M 165.5,43.5 C 162.167,43.5 158.833,43.5 155.5,43.5C 155.5,45.5 155.5,47.5 155.5,49.5C 159.012,48.9455 162.012,49.6122 164.5,51.5C 162.052,52.4731 159.385,52.8064 156.5,52.5C 155.539,54.2646 155.205,56.2646 155.5,58.5C 159.329,57.931 162.663,58.5977 165.5,60.5C 161.167,61.8333 156.833,61.8333 152.5,60.5C 152.5,54.1667 152.5,47.8333 152.5,41.5C 157.294,40.9031 161.627,41.5698 165.5,43.5 Z"/>
	</g>
	<g>
		<path style="opacity:0.62" fill="#7ac3f7" d="M 172.5,41.5 C 171.5,41.5 170.5,41.5 169.5,41.5C 169.207,48.2554 169.54,54.9221 170.5,61.5C 168.539,54.9131 167.872,47.9131 168.5,40.5C 170.099,40.2322 171.432,40.5655 172.5,41.5 Z"/>
	</g>
	<g>
		<path style="opacity:0.998" fill="#3999f1" d="M 172.5,41.5 C 175.792,44.0573 178.126,47.3906 179.5,51.5C 177.462,52.8561 177.128,54.5227 178.5,56.5C 176.674,54.8525 175.34,52.8525 174.5,50.5C 174.013,49.5266 173.513,48.5266 173,47.5C 173.114,52.6059 172.28,57.2726 170.5,61.5C 169.54,54.9221 169.207,48.2554 169.5,41.5C 170.5,41.5 171.5,41.5 172.5,41.5 Z"/>
	</g>
	<g>
		<path style="opacity:0.693" fill="#74bef6" d="M 184.5,41.5 C 182.72,45.7274 181.886,50.3941 182,55.5C 180.519,54.5291 179.685,53.1958 179.5,51.5C 180.117,51.6107 180.617,51.944 181,52.5C 181.499,48.5138 181.666,44.5138 181.5,40.5C 182.791,40.2627 183.791,40.596 184.5,41.5 Z"/>
	</g>
	<g>
		<path style="opacity:1" fill="#319af1" d="M 203.5,42.5 C 202.448,44.256 200.781,44.9227 198.5,44.5C 198.146,50.406 197.146,56.0727 195.5,61.5C 193.55,56.2649 192.883,50.5982 193.5,44.5C 190.918,44.9746 188.918,44.3079 187.5,42.5C 192.833,41.1667 198.167,41.1667 203.5,42.5 Z"/>
	</g>
	<g>
		<path style="opacity:1" fill="#3197d1" d="M 65.5,40.5 C 66.2138,43.5928 67.7138,46.2595 70,48.5C 70.3988,48.2716 70.5654,47.9382 70.5,47.5C 71.7251,48.1522 72.3917,49.3189 72.5,51C 71.6784,55.8077 69.6784,59.9744 66.5,63.5C 61.8033,61.8225 57.8033,59.1558 54.5,55.5C 56.7346,54.7721 58.5679,53.4388 60,51.5C 62.3262,47.9833 64.1595,44.3166 65.5,40.5 Z"/>
	</g>
	<g>
		<path style="opacity:1" fill="#1192ef" d="M 225.5,41.5 C 226.167,41.5 226.833,41.5 227.5,41.5C 228.167,41.5 228.5,41.8333 228.5,42.5C 228.5,47.8333 228.5,53.1667 228.5,58.5C 232.012,57.9455 235.012,58.6122 237.5,60.5C 233.5,60.5 229.5,60.5 225.5,60.5C 225.5,54.1667 225.5,47.8333 225.5,41.5 Z"/>
	</g>
	<g>
		<path style="opacity:0.621" fill="#88caf8" d="M 165.5,43.5 C 162.713,44.4767 159.713,44.81 156.5,44.5C 156.5,45.8333 156.5,47.1667 156.5,48.5C 159.5,48.5 162.5,48.5 165.5,48.5C 165.737,49.791 165.404,50.791 164.5,51.5C 162.012,49.6122 159.012,48.9455 155.5,49.5C 155.5,47.5 155.5,45.5 155.5,43.5C 158.833,43.5 162.167,43.5 165.5,43.5 Z"/>
	</g>
	<g>
		<path style="opacity:0.999" fill="#1b93ef" d="M 184.5,41.5 C 185.167,41.5 185.5,41.8333 185.5,42.5C 186.123,49.2547 185.456,55.588 183.5,61.5C 180.736,61.0012 179.069,59.3345 178.5,56.5C 177.128,54.5227 177.462,52.8561 179.5,51.5C 179.685,53.1958 180.519,54.5291 182,55.5C 181.886,50.3941 182.72,45.7274 184.5,41.5 Z"/>
	</g>
	<g>
		<path style="opacity:0.106" fill="#e2f3fe" d="M 185.5,42.5 C 185.833,42.5 186.167,42.5 186.5,42.5C 186.5,49.1667 186.5,55.8333 186.5,62.5C 185.209,62.7373 184.209,62.404 183.5,61.5C 185.456,55.588 186.123,49.2547 185.5,42.5 Z"/>
	</g>
	<g>
		<path style="opacity:0.027" fill="#f2fafe" d="M 228.5,42.5 C 229.487,47.3054 229.821,52.3054 229.5,57.5C 232.5,57.5 235.5,57.5 238.5,57.5C 238.737,58.791 238.404,59.791 237.5,60.5C 235.012,58.6122 232.012,57.9455 228.5,58.5C 228.5,53.1667 228.5,47.8333 228.5,42.5 Z"/>
	</g>
	<g>
		<path style="opacity:0.435" fill="#70c0f6" d="M 135.5,44.5 C 134.167,44.5 132.833,44.5 131.5,44.5C 131.5,46.1667 131.5,47.8333 131.5,49.5C 132.833,49.5 134.167,49.5 135.5,49.5C 134.081,50.4511 132.415,50.7845 130.5,50.5C 130.5,48.1667 130.5,45.8333 130.5,43.5C 132.415,43.2155 134.081,43.5489 135.5,44.5 Z"/>
	</g>
	<g>
		<path style="opacity:0.027" fill="#f8fcff" d="M 198.5,44.5 C 198.5,50.5 198.5,56.5 198.5,62.5C 197.209,62.7373 196.209,62.404 195.5,61.5C 197.146,56.0727 198.146,50.406 198.5,44.5 Z"/>
	</g>
	<g>
		<path style="opacity:1" fill="#64aef4" d="M 99.5,52.5 C 98.1497,51.5169 97.1497,50.1836 96.5,48.5C 95.5481,50.0453 95.2148,51.712 95.5,53.5C 93.396,53.7989 91.396,53.4656 89.5,52.5C 89.6236,51.8933 89.9569,51.56 90.5,51.5C 91.6009,52.5983 92.9343,52.765 94.5,52C 93.8534,50.3905 93.02,48.8905 92,47.5C 91.7679,48.7375 91.2679,49.7375 90.5,50.5C 90.5,49.5 90.5,48.5 90.5,47.5C 89.5,47.5 88.5,47.5 87.5,47.5C 87.9842,44.3452 89.6509,42.0119 92.5,40.5C 96.3688,43.5666 98.7022,47.5666 99.5,52.5 Z"/>
	</g>
	<g>
		<path style="opacity:0.333" fill="#8ac7f7" d="M 135.5,44.5 C 136.649,44.7911 137.316,45.6244 137.5,47C 137.316,48.3756 136.649,49.2089 135.5,49.5C 136.833,47.8333 136.833,46.1667 135.5,44.5 Z"/>
	</g>
	<g>
		<path style="opacity:0.996" fill="#51c0ea" d="M 41.5,38.5 C 39.1667,41.1667 36.8333,43.8333 34.5,46.5C 33.5,47.1667 32.5,47.8333 31.5,48.5C 30.8333,48.5 30.1667,48.5 29.5,48.5C 31.2733,45.9401 33.2733,43.6068 35.5,41.5C 37.5,40.5 39.5,39.5 41.5,38.5 Z"/>
	</g>
	<g>
		<path style="opacity:1" fill="#ffcd34" d="M 11.5,10.5 C 12.4682,12.6074 12.8016,14.9407 12.5,17.5C 12.582,32.8983 13.582,48.2316 15.5,63.5C 15.631,64.2389 15.4643,64.9056 15,65.5C 12.3585,63.5972 11.5252,61.2639 12.5,58.5C 10.7451,51.3673 8.7451,44.3673 6.5,37.5C 9.70501,31.2154 11.0383,24.5488 10.5,17.5C 10.448,15.0971 10.7814,12.7638 11.5,10.5 Z"/>
	</g>
	<g>
		<path style="opacity:0.998" fill="#53a3f2" d="M 220.5,54.5 C 220.357,56.2624 220.691,57.9291 221.5,59.5C 220.675,60.3857 219.675,60.719 218.5,60.5C 216.591,57.1696 213.591,55.8363 209.5,56.5C 209.167,60.1667 207.167,62.1667 203.5,62.5C 204.691,54.7562 207.358,47.5896 211.5,41C 213.367,40.2888 214.867,40.7888 216,42.5C 218.354,46.203 219.854,50.203 220.5,54.5 Z M 212.5,46.5 C 214.074,48.1016 214.741,50.1016 214.5,52.5C 213.5,52.5 212.5,52.5 211.5,52.5C 211.833,50.5 212.167,48.5 212.5,46.5 Z"/>
	</g>
	<g>
		<path style="opacity:1" fill="#4671bb" d="M 69.5,33.5 C 72.8123,34.0861 74.6457,36.0861 75,39.5C 75.4643,38.9056 75.631,38.2389 75.5,37.5C 75.8333,37.5 76.1667,37.5 76.5,37.5C 77.7515,42.6951 77.4182,47.6951 75.5,52.5C 74.7784,52.9175 74.2784,53.5842 74,54.5C 73.5014,50.8484 73.3347,47.1817 73.5,43.5C 73.6567,42.1266 73.49,40.7932 73,39.5C 71.1805,37.8679 70.0138,35.8679 69.5,33.5 Z"/>
	</g>
	<g>
		<path style="opacity:0.997" fill="#3297f0" d="M 87.5,47.5 C 88.5,47.5 89.5,47.5 90.5,47.5C 90.5,48.5 90.5,49.5 90.5,50.5C 90.5,50.8333 90.5,51.1667 90.5,51.5C 89.9569,51.56 89.6236,51.8933 89.5,52.5C 91.396,53.4656 93.396,53.7989 95.5,53.5C 95.2148,51.712 95.5481,50.0453 96.5,48.5C 97.1497,50.1836 98.1497,51.5169 99.5,52.5C 99.5,52.8333 99.5,53.1667 99.5,53.5C 99.6741,55.861 100.007,58.1944 100.5,60.5C 99.5,60.5 98.5,60.5 97.5,60.5C 96.596,59.791 96.2627,58.791 96.5,57.5C 95.6661,56.2521 94.3328,55.5854 92.5,55.5C 90.6672,55.5854 89.3339,56.2521 88.5,57.5C 88.4431,58.609 88.1098,59.609 87.5,60.5C 86.5,60.5 85.5,60.5 84.5,60.5C 84.5,59.1667 84.5,57.8333 84.5,56.5C 84.9281,53.2154 85.9281,50.2154 87.5,47.5 Z"/>
	</g>
	<g>
		<path style="opacity:0.172" fill="#d4edfd" d="M 174.5,50.5 C 173.517,54.2984 173.183,58.2984 173.5,62.5C 172.209,62.7373 171.209,62.404 170.5,61.5C 172.28,57.2726 173.114,52.6059 173,47.5C 173.513,48.5266 174.013,49.5266 174.5,50.5 Z"/>
	</g>
	<g>
		<path style="opacity:1" fill="#348fab" d="M 34.5,46.5 C 34.5,47.1667 34.8333,47.5 35.5,47.5C 34.5,48.8333 33.5,50.1667 32.5,51.5C 30.5,53.5 28.5,55.5 26.5,57.5C 26.0618,57.5654 25.7284,57.3988 25.5,57C 27.7195,54.2872 29.7195,51.4539 31.5,48.5C 32.5,47.8333 33.5,47.1667 34.5,46.5 Z"/>
	</g>
	<g>
		<path style="opacity:0.176" fill="#d2ebfd" d="M 108.5,49.5 C 109.11,50.391 109.443,51.391 109.5,52.5C 108.521,55.6248 108.187,58.9581 108.5,62.5C 107.209,62.7373 106.209,62.404 105.5,61.5C 107.131,57.7675 108.131,53.7675 108.5,49.5 Z"/>
	</g>
	<g>
		<path style="opacity:0.995" fill="#4fa3f2" d="M 119.5,60.5 C 119.665,56.8183 119.499,53.1516 119,49.5C 118.487,50.5266 117.987,51.5266 117.5,52.5C 114.978,60.3354 112.312,60.3354 109.5,52.5C 109.443,51.391 109.11,50.391 108.5,49.5C 109.497,49.5299 110.164,49.0299 110.5,48C 108.997,46.0786 108.331,43.912 108.5,41.5C 110.397,44.2856 112.063,47.2856 113.5,50.5C 115.42,47.6612 117.087,44.6612 118.5,41.5C 120.006,40.2528 121.506,40.2528 123,41.5C 123.831,48.5237 123.664,55.5237 122.5,62.5C 121.261,62.0576 120.261,61.3909 119.5,60.5 Z"/>
	</g>
	<g>
		<path style="opacity:0.067" fill="#ecf7fe" d="M 119.5,60.5 C 118.833,57.8333 118.167,55.1667 117.5,52.5C 117.987,51.5266 118.487,50.5266 119,49.5C 119.499,53.1516 119.665,56.8183 119.5,60.5 Z"/>
	</g>
	<g>
		<path style="opacity:0.435" fill="#aedbfa" d="M 136.5,53.5 C 134.833,53.5 133.167,53.5 131.5,53.5C 131.5,54.8333 131.5,56.1667 131.5,57.5C 133.167,57.5 134.833,57.5 136.5,57.5C 134.735,58.4614 132.735,58.7947 130.5,58.5C 130.5,56.5 130.5,54.5 130.5,52.5C 132.735,52.2053 134.735,52.5386 136.5,53.5 Z"/>
	</g>
	<g>
		<path style="opacity:0.165" fill="#cdeafd" d="M 96.5,57.5 C 93.8333,56.1667 91.1667,56.1667 88.5,57.5C 89.3339,56.2521 90.6672,55.5854 92.5,55.5C 94.3328,55.5854 95.6661,56.2521 96.5,57.5 Z"/>
	</g>
	<g>
		<path style="opacity:0.083" fill="#cee9fc" d="M 156.5,52.5 C 156.5,54.1667 156.5,55.8333 156.5,57.5C 159.833,57.5 163.167,57.5 166.5,57.5C 166.737,58.791 166.404,59.791 165.5,60.5C 162.663,58.5977 159.329,57.931 155.5,58.5C 155.205,56.2646 155.539,54.2646 156.5,52.5 Z"/>
	</g>
	<g>
		<path style="opacity:0.965" fill="#93c5f7" d="M 84.5,56.5 C 84.5,57.8333 84.5,59.1667 84.5,60.5C 85.5,60.5 86.5,60.5 87.5,60.5C 86.2493,62.2199 84.7493,62.5532 83,61.5C 82.7973,59.6092 83.2973,57.9425 84.5,56.5 Z"/>
	</g>
	<g>
		<path style="opacity:0.875" fill="#90c5f7" d="M 99.5,53.5 C 100.67,55.6502 101.67,57.9836 102.5,60.5C 100.916,62.8954 99.2495,62.8954 97.5,60.5C 98.5,60.5 99.5,60.5 100.5,60.5C 100.007,58.1944 99.6741,55.861 99.5,53.5 Z"/>
	</g>
	<g>
		<path style="opacity:0.769" fill="#93c7f7" d="M 220.5,54.5 C 221.578,56.5394 222.578,58.706 223.5,61C 221.549,63.0647 219.882,62.898 218.5,60.5C 219.675,60.719 220.675,60.3857 221.5,59.5C 220.691,57.9291 220.357,56.2624 220.5,54.5 Z"/>
	</g>
	<g>
		<path style="opacity:0.737" fill="#4caef3" d="M 225.5,41.5 C 225.5,47.8333 225.5,54.1667 225.5,60.5C 229.5,60.5 233.5,60.5 237.5,60.5C 235.527,61.1627 233.361,61.4961 231,61.5C 228.39,61.4668 226.223,60.8001 224.5,59.5C 224.177,53.31 224.51,47.31 225.5,41.5 Z"/>
	</g>
	<g>
		<path style="opacity:1" fill="#6fbeea" d="M 24.5,54.5 C 24.3426,60.3196 24.3426,66.3196 24.5,72.5C 23.279,67.8427 22.279,63.0094 21.5,58C 21.9778,56.3576 22.9778,55.1909 24.5,54.5 Z"/>
	</g>
	<g>
		<path style="opacity:1" fill="#1aa7e0" d="M 32.5,51.5 C 33.5462,53.7359 34.8795,55.7359 36.5,57.5C 39.3918,60.271 42.0584,63.271 44.5,66.5C 38.8643,66.0112 33.1976,64.6779 27.5,62.5C 26.6993,60.9582 26.366,59.2915 26.5,57.5C 28.5,55.5 30.5,53.5 32.5,51.5 Z"/>
	</g>
	<g>
		<path style="opacity:1" fill="#2c6691" d="M 54.5,55.5 C 57.8033,59.1558 61.8033,61.8225 66.5,63.5C 67.2625,64.2679 68.2625,64.7679 69.5,65C 68.1772,65.8159 67.5106,66.9826 67.5,68.5C 66.5041,68.4142 65.6708,68.7476 65,69.5C 60.6298,65.2978 56.4632,60.9645 52.5,56.5C 52.8417,55.6618 53.5084,55.3284 54.5,55.5 Z"/>
	</g>
	<g>
		<path style="opacity:1" fill="#75d0f0" d="M 46.5,53.5 C 48.9468,53.615 50.9468,54.615 52.5,56.5C 56.4632,60.9645 60.6298,65.2978 65,69.5C 65.6708,68.7476 66.5041,68.4142 67.5,68.5C 67.5,68.8333 67.5,69.1667 67.5,69.5C 66.1667,69.8333 66.1667,70.1667 67.5,70.5C 69.0682,72.9312 70.5682,72.9312 72,70.5C 73.4404,71.9304 73.7737,73.597 73,75.5C 70.7497,74.2921 68.583,72.9587 66.5,71.5C 65.7025,71.9569 65.3691,72.6236 65.5,73.5C 57.8076,68.1072 51.4743,61.4405 46.5,53.5 Z"/>
	</g>
	<g>
		<path style="opacity:1" fill="#2d7cbd" d="M 29.5,48.5 C 30.1667,48.5 30.8333,48.5 31.5,48.5C 29.7195,51.4539 27.7195,54.2872 25.5,57C 25.7284,57.3988 26.0618,57.5654 26.5,57.5C 26.366,59.2915 26.6993,60.9582 27.5,62.5C 30.1899,65.3648 33.5233,67.5315 37.5,69C 40.0991,69.769 42.5991,69.6023 45,68.5C 45.5,69 46,69.5 46.5,70C 44.2115,70.8221 41.8782,71.4888 39.5,72C 41.1667,72.3333 42.8333,72.6667 44.5,73C 43.3909,74.813 44.0576,75.6463 46.5,75.5C 43.6965,76.6378 40.6965,76.8045 37.5,76C 35.2634,73.9353 32.5967,72.7686 29.5,72.5C 27.3683,69.6852 26.3683,70.0185 26.5,73.5C 26.8029,75.1143 27.4695,76.4477 28.5,77.5C 27.5489,78.9187 27.2155,80.5853 27.5,82.5C 26.8333,81.1667 26.1667,79.8333 25.5,78.5C 24.6586,76.6208 24.3253,74.6208 24.5,72.5C 24.3426,66.3196 24.3426,60.3196 24.5,54.5C 25.4431,51.8908 27.1097,49.8908 29.5,48.5 Z"/>
	</g>
	<g>
		<path style="opacity:1" fill="#3390ce" d="M 27.5,62.5 C 33.1976,64.6779 38.8643,66.0112 44.5,66.5C 46.8235,69.1261 49.1568,71.7928 51.5,74.5C 49.9582,75.3007 48.2915,75.634 46.5,75.5C 44.0576,75.6463 43.3909,74.813 44.5,73C 42.8333,72.6667 41.1667,72.3333 39.5,72C 41.8782,71.4888 44.2115,70.8221 46.5,70C 46,69.5 45.5,69 45,68.5C 42.5991,69.6023 40.0991,69.769 37.5,69C 33.5233,67.5315 30.1899,65.3648 27.5,62.5 Z"/>
	</g>
	<g>
		<path style="opacity:0.878" fill="#4a84c6" d="M 73.5,43.5 C 73.3347,47.1817 73.5014,50.8484 74,54.5C 74.2784,53.5842 74.7784,52.9175 75.5,52.5C 74.9529,56.4765 73.6196,60.1432 71.5,63.5C 73.2546,66.6792 74.7546,70.0125 76,73.5C 77.1667,77.6667 75.6667,79.1667 71.5,78C 69.2528,76.7225 67.2528,75.2225 65.5,73.5C 65.3691,72.6236 65.7025,71.9569 66.5,71.5C 68.583,72.9587 70.7497,74.2921 73,75.5C 73.7737,73.597 73.4404,71.9304 72,70.5C 70.5682,72.9312 69.0682,72.9312 67.5,70.5C 67.5,70.1667 67.5,69.8333 67.5,69.5C 67.5,69.1667 67.5,68.8333 67.5,68.5C 67.5106,66.9826 68.1772,65.8159 69.5,65C 68.2625,64.7679 67.2625,64.2679 66.5,63.5C 69.6784,59.9744 71.6784,55.8077 72.5,51C 72.3917,49.3189 71.7251,48.1522 70.5,47.5C 70.3433,46.1266 70.51,44.7932 71,43.5C 71.7697,42.4019 72.603,42.4019 73.5,43.5 Z"/>
	</g>
	<g>
		<path style="opacity:0.275" fill="#fff3c0" d="M 16.5,68.5 C 17.4131,70.9333 18.4131,73.4333 19.5,76C 19,76.5 18.5,77 18,77.5C 16.878,75.5932 16.0447,73.5932 15.5,71.5C 16.404,70.791 16.7373,69.791 16.5,68.5 Z"/>
	</g>
	<g>
		<path style="opacity:1" fill="#242d86" d="M 29.5,72.5 C 29.5,73.5 29.5,74.5 29.5,75.5C 35.38,76.9916 41.38,77.8249 47.5,78C 42.1771,78.4994 36.8437,78.666 31.5,78.5C 30.791,77.596 29.791,77.2627 28.5,77.5C 27.4695,76.4477 26.8029,75.1143 26.5,73.5C 26.3683,70.0185 27.3683,69.6852 29.5,72.5 Z"/>
	</g>
	<g>
		<path style="opacity:1" fill="#5d70b7" d="M 29.5,72.5 C 32.5967,72.7686 35.2634,73.9353 37.5,76C 40.6965,76.8045 43.6965,76.6378 46.5,75.5C 48.2915,75.634 49.9582,75.3007 51.5,74.5C 54.192,76.8623 56.8587,79.1956 59.5,81.5C 59.5,82.1667 59.1667,82.5 58.5,82.5C 55.8236,81.1618 53.1569,79.8285 50.5,78.5C 44.0181,79.7724 37.6848,79.7724 31.5,78.5C 36.8437,78.666 42.1771,78.4994 47.5,78C 41.38,77.8249 35.38,76.9916 29.5,75.5C 29.5,74.5 29.5,73.5 29.5,72.5 Z"/>
	</g>
	<g>
		<path style="opacity:0.525" fill="#a5b6d7" d="M 28.5,77.5 C 29.791,77.2627 30.791,77.596 31.5,78.5C 30.5,78.5 29.5,78.5 28.5,78.5C 28.7678,80.099 28.4345,81.4324 27.5,82.5C 27.2155,80.5853 27.5489,78.9187 28.5,77.5 Z"/>
	</g>
	<g>
		<path style="opacity:0.02" fill="#dce7f3" d="M 25.5,78.5 C 26.1667,79.8333 26.8333,81.1667 27.5,82.5C 27.44,83.0431 27.1067,83.3764 26.5,83.5C 25.5481,81.9547 25.2148,80.288 25.5,78.5 Z"/>
	</g>
	<g>
		<path style="opacity:0.141" fill="#e0e0ef" d="M 59.5,81.5 C 61.487,82.1642 63.1537,83.3308 64.5,85C 62.1788,85.008 60.1788,84.1747 58.5,82.5C 59.1667,82.5 59.5,82.1667 59.5,81.5 Z"/>
	</g>
</svg>
